# xmcd
#
# Track frame offsets: 
#        150
#        17729
#        33944
#        57642
#        77701
#        95906
#        111052
#        136325
#        154980
#        168053
#        187887
#        208632
#        224253
#
# Disc length: 3245 seconds
#
# Revision: 1
# Processed by: cddbd v1.5.2PL0 Copyright (c) Steve Scherf et al.
# Submitted via: ExactAudioCopy v0.99pb4
#
DISCID=af0cab0d
DTITLE=Rod Piazza and the Mighty Flyers Blues Quartet - Soul Monster
DYEAR=2009
DGENRE=Blues
TTITLE0=Soul Monster
TTITLE1=Can't Stand To See You Go
TTITLE2=Cheap Wine
TTITLE3=Key To The Highway
TTITLE4=Sunbird
TTITLE5=That's What's Knockin' Me Out
TTITLE6=Tell Me About It Sam
TTITLE7=Queen Bee
TTITLE8=Expression Session
TTITLE9=Ko Ko Mo (I Love You So)
TTITLE10=Talk To Me
TTITLE11=You Better Watch Yourself
TTITLE12=Hey, Mrs. Jones
EXTD=
EXTT0=
EXTT1=
EXTT2=
EXTT3=
EXTT4=
EXTT5=
EXTT6=
EXTT7=
EXTT8=
EXTT9=
EXTT10=
EXTT11=
EXTT12=
PLAYORDER=
